<svg viewBox="0 0 46 46" fill="none" xmlns="http://www.w3.org/2000/svg">
<path d="M44.9426 23C44.9426 35.1185 35.1185 44.9425 23 44.9425C10.8815 44.9425 1.0575 35.1185 1.0575 23C1.0575 10.8815 10.8815 1.05746 23 1.05746C35.1185 1.05746 44.9426 10.8815 44.9426 23Z" fill="#E04854"/>
<path d="M24.516 17.977L14.8046 32.7816L24.3218 44.9425C28.8161 44.6782 35.4253 42.8276 40.7126 35.954L24.516 17.977Z" fill="black" fill-opacity="0.08"/>
<path fill-rule="evenodd" clip-rule="evenodd" d="M46 23C46 35.7025 35.7025 46 23 46C10.2975 46 0 35.7025 0 23C0 10.2975 10.2975 0 23 0C35.7025 0 46 10.2975 46 23ZM23.5287 44.4138C35.6473 44.4138 44.4138 34.5898 44.4138 22.4713C44.4138 10.3527 35.1185 1.58621 23 1.58621C10.8815 1.58621 1.58621 10.8815 1.58621 23C1.58621 35.1185 11.4102 44.4138 23.5287 44.4138Z" fill="#BE3D47"/>
<g filter="url(#filter0_d)">
<path d="M31.1899 17.9783C31.1224 17.9783 31.0554 17.9801 30.9886 17.983C30.9708 17.979 30.9527 17.977 30.9345 17.977H13.4737C13.406 17.977 13.3411 18.0045 13.2932 18.0533C13.2453 18.1022 13.2184 18.1684 13.2184 18.2375V26.5963C13.2184 29.1127 15.0189 31.2208 17.3707 31.6468H15.669C15.1753 31.6468 14.7751 32.0551 14.7751 32.5587C14.7751 33.0623 15.1753 33.4705 15.669 33.4705H29.1476C29.6414 33.4705 30.0416 33.0623 30.0416 32.5587C30.0416 32.0551 29.6414 31.6468 29.1476 31.6468H27.0375C29.0301 31.2859 30.6266 29.7174 31.0679 27.7163C31.1084 27.7173 31.1491 27.7178 31.1898 27.7178C33.8223 27.7178 35.964 25.5333 35.964 22.8481C35.964 20.1629 33.8224 17.9783 31.1899 17.9783ZM31.1899 25.8941V19.802C32.8365 19.802 34.1761 21.1685 34.1761 22.8481C34.1761 24.5277 32.8365 25.8941 31.1899 25.8941Z" fill="#FAFAFA"/>
<path d="M21.6283 15.0334L21.6277 15.0324C21.5443 14.9117 21.4513 14.7768 21.3524 14.6191C20.7504 13.6589 21.621 12.6976 22.2301 12.2811C22.4923 12.1016 22.8884 12.126 23.1136 12.3353C23.3381 12.5444 23.3084 12.8589 23.0475 13.0387C23.0316 13.0499 22.1628 13.6769 22.4733 14.1722C22.5631 14.3157 22.6482 14.4386 22.7242 14.5484L22.726 14.5511C23.1696 15.1934 23.3944 15.606 22.8511 16.6165C22.7495 16.8058 22.5183 16.9193 22.2751 16.9195C22.1903 16.9195 22.1064 16.9056 22.0285 16.8788C21.7106 16.7702 21.5632 16.4765 21.6996 16.2228C22.0278 15.6117 21.9745 15.5345 21.6283 15.0334Z" fill="#FAFAFA"/>
<path d="M25.8582 15.0334L25.8576 15.0324C25.7742 14.9117 25.6811 14.7768 25.5823 14.6191C24.9802 13.6589 25.8509 12.6976 26.46 12.2811C26.7222 12.1016 27.1183 12.126 27.3435 12.3353C27.568 12.5444 27.5383 12.8589 27.2774 13.0387C27.2615 13.0499 26.3927 13.6769 26.7032 14.1722C26.793 14.3157 26.878 14.4386 26.954 14.5484L26.9559 14.5511C27.3994 15.1934 27.6243 15.606 27.081 16.6165C26.9794 16.8058 26.7482 16.9193 26.505 16.9195C26.4201 16.9195 26.3363 16.9056 26.2584 16.8788C25.9405 16.7702 25.7931 16.4765 25.9295 16.2228C26.2577 15.6117 26.2044 15.5345 25.8582 15.0334Z" fill="#FAFAFA"/>
<path d="M17.3985 15.0334L17.3978 15.0324C17.3144 14.9117 17.2214 14.7768 17.1225 14.6191C16.5205 13.6589 17.3911 12.6976 18.0002 12.2811C18.2624 12.1016 18.6585 12.126 18.8837 12.3353C19.1082 12.5444 19.0786 12.8589 18.8176 13.0387C18.8017 13.0499 17.9329 13.6769 18.2434 14.1722C18.3332 14.3157 18.4183 14.4386 18.4943 14.5484L18.4961 14.5511C18.9397 15.1934 19.1645 15.606 18.6212 16.6165C18.5197 16.8058 18.2884 16.9193 18.0452 16.9195C17.9604 16.9195 17.8765 16.9056 17.7986 16.8788C17.4808 16.7702 17.3333 16.4765 17.4697 16.2228C17.7979 15.6117 17.7446 15.5345 17.3985 15.0334Z" fill="#FAFAFA"/>
</g>
<g filter="url(#filter1_d)">
<path d="M22.2546 22.7942C22.0379 22.7942 21.8333 22.8206 21.6407 22.8733C21.4482 22.926 21.2345 23.011 20.9998 23.1282L20.6207 22.1351C20.8554 21.9887 21.1322 21.8774 21.4512 21.8012C21.7701 21.7192 22.0831 21.6782 22.39 21.6782C22.7752 21.6782 23.0911 21.728 23.3379 21.8276C23.5906 21.9272 23.7892 22.0531 23.9336 22.2054C24.0781 22.3578 24.1774 22.5247 24.2315 22.7063C24.2917 22.888 24.3218 23.0608 24.3218 23.2248C24.3218 23.3889 24.2947 23.5412 24.2406 23.6818C24.1924 23.8165 24.1292 23.9425 24.051 24.0597C23.9728 24.1768 23.8825 24.2882 23.7802 24.3936C23.6779 24.4991 23.5786 24.5987 23.4823 24.6924C23.4101 24.7627 23.3348 24.8389 23.2566 24.9209C23.1784 24.997 23.1062 25.0791 23.04 25.1669C22.9798 25.2548 22.9286 25.3486 22.8865 25.4481C22.8444 25.5419 22.8233 25.6386 22.8233 25.7381C22.8233 25.7616 22.8233 25.7967 22.8233 25.8436C22.8233 25.8905 22.8263 25.9315 22.8323 25.9666H21.6407C21.6287 25.908 21.6197 25.8436 21.6137 25.7733C21.6137 25.6971 21.6137 25.6327 21.6137 25.58C21.6137 25.4159 21.6347 25.2695 21.6768 25.1406C21.719 25.0058 21.7731 24.8828 21.8393 24.7715C21.9116 24.6543 21.9928 24.5459 22.0831 24.4463C22.1733 24.3467 22.2666 24.2501 22.3629 24.1563C22.5013 24.0216 22.6277 23.8898 22.7421 23.7609C22.8564 23.6261 22.9136 23.4738 22.9136 23.3039C22.9136 23.1633 22.8564 23.0432 22.7421 22.9436C22.6337 22.844 22.4712 22.7942 22.2546 22.7942ZM23.0941 27.2145C23.0941 27.4723 23.0069 27.6715 22.8323 27.8121C22.6638 27.9527 22.4712 28.023 22.2546 28.023C22.0379 28.023 21.8423 27.9527 21.6678 27.8121C21.4993 27.6715 21.4151 27.4723 21.4151 27.2145C21.4151 26.9567 21.4993 26.7575 21.6678 26.6169C21.8423 26.4763 22.0379 26.406 22.2546 26.406C22.4712 26.406 22.6638 26.4763 22.8323 26.6169C23.0069 26.7575 23.0941 26.9567 23.0941 27.2145Z" fill="#E04854"/>
</g>
<defs>
<filter id="filter0_d" x="13.2184" y="12.1609" width="23.7456" height="22.3096" filterUnits="userSpaceOnUse" color-interpolation-filters="sRGB">
<feFlood flood-opacity="0" result="BackgroundImageFix"/>
<feColorMatrix in="SourceAlpha" type="matrix" values="0 0 0 0 0 0 0 0 0 0 0 0 0 0 0 0 0 0 127 0"/>
<feOffset dx="1" dy="1"/>
<feColorMatrix type="matrix" values="0 0 0 0 0 0 0 0 0 0 0 0 0 0 0 0 0 0 0.15 0"/>
<feBlend mode="normal" in2="BackgroundImageFix" result="effect1_dropShadow"/>
<feBlend mode="normal" in="SourceGraphic" in2="effect1_dropShadow" result="shape"/>
</filter>
<filter id="filter1_d" x="20.6207" y="21.6782" width="4.10115" height="6.54483" filterUnits="userSpaceOnUse" color-interpolation-filters="sRGB">
<feFlood flood-opacity="0" result="BackgroundImageFix"/>
<feColorMatrix in="SourceAlpha" type="matrix" values="0 0 0 0 0 0 0 0 0 0 0 0 0 0 0 0 0 0 127 0"/>
<feOffset dx="0.4" dy="0.2"/>
<feColorMatrix type="matrix" values="0 0 0 0 0.745098 0 0 0 0 0.239216 0 0 0 0 0.278431 0 0 0 0.1 0"/>
<feBlend mode="normal" in2="BackgroundImageFix" result="effect1_dropShadow"/>
<feBlend mode="normal" in="SourceGraphic" in2="effect1_dropShadow" result="shape"/>
</filter>
</defs>
</svg>
